<?xml version="1.0" encoding="utf-8"?>
<!-- Generator: Adobe Illustrator 16.0.0, SVG Export Plug-In . SVG Version: 6.00 Build 0)  -->
<!DOCTYPE svg PUBLIC "-//W3C//DTD SVG 1.1//EN" "http://www.w3.org/Graphics/SVG/1.1/DTD/svg11.dtd">
<svg version="1.1" xmlns="http://www.w3.org/2000/svg" xmlns:xlink="http://www.w3.org/1999/xlink" x="0px" y="0px" width="1000px"
	 height="1000px" viewBox="0 0 1000 1000" enable-background="new 0 0 1000 1000" xml:space="preserve">
<g id="Layer_1">
</g>
<g id="Layer_2">
	<g id="Digital_marketing_strategy">
		<path fill="#CADDFF" d="M283.404,290.845c86.518-87.039,61.747-141.589,120.946-181.887
			c91.089-62.008,261.095-8.66,361.393,76.629c122.843,104.461,186.221,295.195,114.022,467.747
			c-76.889,183.762-279.193,279.151-459.711,250.404C258.852,878.066,100.385,751.071,84.507,598.757
			c-1.721-16.51-9.318-105.752,43.966-182.694C172.516,352.465,214.823,359.839,283.404,290.845z"/>
		<g>
			<g>
				<path fill="#99B9FF" d="M363.177,439.975c-11.256-1.436-19.691-11.015-19.691-22.362l-1.471-309.814l5.526-11.944
					c0,0,10.028-6.687,15.291-9.681c3.165-1.8,6.926-2.638,10.858-2.136l446.968,57.001c11.256,1.436,19.69,11.014,19.69,22.361
					v307.125c-0.53,18.836-23.728,27.502-23.728,27.502L363.177,439.975z"/>
				<path d="M827.896,258.198c-0.828,0-1.5-0.672-1.5-1.5v-83.72c0-10.563-7.902-19.537-18.381-20.873l-77.352-9.864
					c-0.822-0.105-1.403-0.856-1.299-1.678c0.104-0.823,0.854-1.405,1.678-1.299l77.352,9.864
					c11.974,1.527,21.002,11.78,21.002,23.85v83.72C829.396,257.526,828.725,258.198,827.896,258.198z"/>
				<path d="M341.504,238.65c-0.829,0-1.5-0.672-1.5-1.5V110.992c0-5.461,2.351-10.663,6.449-14.271
					c4.099-3.61,9.556-5.279,14.974-4.593l350.909,44.751c0.822,0.105,1.403,0.856,1.299,1.678c-0.105,0.821-0.86,1.397-1.678,1.299
					l-350.91-44.751c-4.561-0.586-9.159,0.827-12.611,3.867c-3.452,3.04-5.432,7.421-5.432,12.021V237.15
					C343.004,237.979,342.333,238.65,341.504,238.65z"/>
				<path fill="#FFFFFF" d="M793.412,484.151l-417.464-53.239c-10.513-1.341-18.391-10.287-18.391-20.885V123.175
					c0-9.857,8.653-17.477,18.431-16.229l417.465,53.239c10.513,1.341,18.392,10.287,18.392,20.885v286.853
					C811.844,477.779,803.191,485.398,793.412,484.151z"/>
			</g>
			<g>
				<g>
					<path fill="#99B9FF" d="M547.402,678.356L87.713,619.073c-3.598-0.461-5.627-3.474-5.581-6.485
						c0.032-2.078,0.2-16.711,0.2-16.711l243.061-138.953c12.178-6.955,27.935-9.642,41.846-7.86l453.884,58.551
						c2.732,0.353,5.075,2.125,6.158,4.658l0.729,1.709c0,0-0.39,12.203-0.231,15.054c0.123,2.229-0.88,4.529-3.215,5.863
						L587.604,670.383C575.426,677.339,561.313,680.138,547.402,678.356z"/>
					<g>
						<path fill="#FFFFFF" d="M547.402,662.072L89.356,602.901c-6.08-0.778-7.679-8.843-2.356-11.883l235.688-134.611
							c12.178-6.956,26.291-9.755,40.202-7.974l458.045,59.171c6.08,0.778,7.68,8.843,2.357,11.883L587.604,654.1
							C575.426,661.055,561.313,663.854,547.402,662.072z"/>
						<path d="M555.496,664.087c-2.767,0-5.533-0.175-8.284-0.526c-0.001-0.001-0.001-0.001-0.002-0.001L89.164,604.389
							c-3.419-0.438-6.063-2.907-6.733-6.289c-0.67-3.383,0.831-6.674,3.825-8.384l235.689-134.611
							c12.381-7.071,26.989-9.968,41.136-8.159l458.047,59.172c3.419,0.438,6.063,2.907,6.733,6.29
							c0.671,3.382-0.83,6.673-3.824,8.383L588.349,655.401C578.374,661.098,566.953,664.087,555.496,664.087z M547.595,660.585
							c13.503,1.729,27.446-1.038,39.266-7.789l235.688-134.611c2.252-1.286,2.701-3.526,2.37-5.194s-1.601-3.568-4.174-3.897
							l-458.047-59.172c-13.497-1.725-27.445,1.037-39.265,7.789L87.744,592.321c-2.252,1.286-2.701,3.526-2.37,5.194
							s1.601,3.568,4.174,3.897L547.595,660.585z"/>
					</g>
					<path fill="#99B9FF" d="M637.082,587.352l-397.185-51.684c-5.491-0.703-6.936-7.986-2.128-10.732l93.39-52.8
						c10.999-6.282,23.746-8.811,36.31-7.201l397.185,51.683c5.491,0.703,6.936,7.987,2.129,10.732l-93.391,52.801
						C662.393,586.432,649.646,588.96,637.082,587.352z"/>
					<path fill="#99B9FF" d="M404.001,617.686l-110.547-14.281c-1.467-0.188-1.853-2.134-0.569-2.867l53.416-29.211
						c2.939-1.679,6.345-2.354,9.703-1.925l110.546,14.28c1.467,0.188,1.854,2.135,0.568,2.868l-53.415,29.211
						C410.765,617.439,407.359,618.115,404.001,617.686z"/>
				</g>
				<g>
					<path d="M663.419,520.785c-0.061,0-0.121-0.004-0.183-0.011l-166.153-20.198c-0.822-0.101-1.408-0.848-1.309-1.67
						c0.101-0.823,0.848-1.396,1.67-1.309l166.153,20.198c0.822,0.101,1.408,0.848,1.309,1.67
						C664.813,520.228,664.166,520.785,663.419,520.785z"/>
					<path d="M590.778,537.075c-0.061,0-0.121-0.004-0.183-0.011l-48.238-5.864c-0.822-0.101-1.408-0.848-1.309-1.67
						c0.101-0.823,0.852-1.396,1.67-1.309l48.238,5.864c0.822,0.101,1.408,0.848,1.309,1.67
						C592.173,536.518,591.525,537.075,590.778,537.075z"/>
					<path d="M418.76,540.007c-0.061,0-0.122-0.004-0.183-0.011l-48.238-5.864c-0.822-0.101-1.408-0.848-1.308-1.67
						c0.1-0.823,0.851-1.403,1.67-1.309l48.238,5.864c0.822,0.101,1.408,0.848,1.308,1.67
						C420.155,539.449,419.508,540.007,418.76,540.007z"/>
				</g>
			</g>
		</g>
		<path fill="#5479F7" d="M307.309,156.702l-1.932-7.061l-7.98,0.363c-0.74-1.555-1.596-3.028-2.565-4.407l4.226-6.773l-5.201-5.147
			l-6.732,4.309c-1.401-0.962-2.88-1.806-4.422-2.522l0.276-7.992l-7.076-1.856l-3.672,7.089c-1.679-0.132-3.383-0.118-5.096,0.037
			l-3.754-7.057l-7.055,1.933l0.362,7.987c-1.553,0.74-3.026,1.597-4.404,2.566l-6.769-4.228l-5.144,5.204l4.306,6.737
			c-0.961,1.403-1.805,2.883-2.521,4.425l-7.986-0.275l-1.855,7.081l7.084,3.674c-0.132,1.68-0.118,3.385,0.037,5.1l-7.053,3.756
			l1.932,7.06l7.98-0.362c0.74,1.555,1.596,3.028,2.565,4.407l-4.226,6.773l5.201,5.147l6.732-4.308
			c1.401,0.962,2.88,1.806,4.422,2.522l-0.275,7.992l7.075,1.855l3.672-7.089c1.679,0.132,3.383,0.118,5.096-0.037l3.754,7.058
			l7.055-1.933l-0.362-7.987c1.553-0.74,3.026-1.597,4.404-2.566l6.769,4.229l5.144-5.204l-4.306-6.736
			c0.961-1.403,1.804-2.883,2.521-4.425l7.986,0.276l1.855-7.081l-7.084-3.674c0.132-1.68,0.119-3.385-0.037-5.1L307.309,156.702z
			 M274.819,181.347c-10.031,2.749-20.388-3.161-23.135-13.198c-2.746-10.037,3.159-20.402,13.189-23.15
			c10.03-2.749,20.388,3.16,23.134,13.198C290.754,168.233,284.849,178.598,274.819,181.347z"/>
		<g>
			<g>
				<path fill="#5479F7" d="M124.356,193.91c6.452-23.04,30.392-36.593,53.47-30.272c23.079,6.321,36.557,30.122,30.105,53.162
					s-30.392,36.593-53.47,30.272C131.383,240.751,117.904,216.949,124.356,193.91z"/>
				<path fill="#FFFFFF" d="M185.882,189.109l2.833,0.789c1.421,0.396,2.252,1.87,1.856,3.291l-9.81,35.209
					c-0.396,1.422-1.869,2.253-3.291,1.857l-2.833-0.79c-1.421-0.396-2.252-1.869-1.856-3.291l9.81-35.209
					C182.987,189.544,184.46,188.713,185.882,189.109z"/>
				<path fill="#FFFFFF" d="M167.082,196.51l2.833,0.79c1.421,0.396,2.252,1.869,1.856,3.291l-6.542,23.481
					c-0.396,1.421-1.869,2.252-3.291,1.856l-2.833-0.79c-1.421-0.396-2.252-1.869-1.856-3.291l6.542-23.481
					C164.187,196.945,165.66,196.114,167.082,196.51z"/>
				<path fill="#FFFFFF" d="M147.376,207.16l2.833,0.79c1.421,0.396,2.252,1.869,1.856,3.291l-2.369,8.503
					c-0.396,1.421-1.869,2.252-3.291,1.856l-2.833-0.79c-1.421-0.396-2.252-1.869-1.856-3.291l2.369-8.503
					C144.482,207.596,145.955,206.764,147.376,207.16z"/>
			</g>
		</g>
		<g>
			<path fill="#FFFFFF" d="M160.451,306.763c6.371,13.472,0.89,29.822-12.243,36.518c-13.133,6.696-28.944,1.203-35.315-12.269
				c-6.371-13.472-0.889-29.822,12.244-36.518S154.08,293.291,160.451,306.763z"/>
			<path d="M136.436,348.505c-3.037,0-6.082-0.501-9.038-1.509c-7.335-2.503-13.235-7.814-16.613-14.958
				c-6.905-14.603-0.937-32.391,13.306-39.652c8.62-4.396,18.726-4.109,27.03,0.766c0.714,0.42,0.954,1.339,0.534,2.054
				c-0.418,0.714-1.337,0.953-2.053,0.534c-7.418-4.354-16.445-4.607-24.149-0.682c-12.812,6.533-18.175,22.547-11.956,35.697
				c3.028,6.404,8.31,11.163,14.87,13.401c6.455,2.204,13.388,1.691,19.526-1.438c12.812-6.533,18.175-22.546,11.956-35.696
				c-0.354-0.749-0.034-1.644,0.715-1.998c0.748-0.355,1.642-0.033,1.997,0.715c6.905,14.603,0.937,32.39-13.306,39.651
				C145.196,347.459,140.824,348.505,136.436,348.505z"/>
			<g>
				<path fill="#5479F7" d="M141.705,334.361l-1.6-3.385c-2.378,1.08-4.938,1.589-6.628,1.479l-0.929-4.699
					c1.846,0.075,4.249-0.221,6.506-1.372c1.979-1.009,2.963-2.483,2.29-3.908c-0.64-1.354-2.156-1.643-5.146-1.223
					c-4.322,0.612-7.7,0.124-9.334-3.332c-1.482-3.135-0.492-6.691,2.87-9.333l-1.6-3.384l3.403-1.735l1.482,3.135
					c2.377-1.079,4.176-1.377,5.592-1.392l0.896,4.539c-1.088,0.068-3.074,0.063-5.574,1.338c-2.257,1.151-2.515,2.52-2.043,3.518
					c0.556,1.175,2.125,1.304,5.616,0.938c4.84-0.611,7.433,0.499,8.949,3.705c1.5,3.17,0.592,6.993-3.064,9.742l1.718,3.634
					L141.705,334.361z"/>
			</g>
		</g>
		<g>
			<path fill="#CADDFF" d="M546.208,240.975c1.033,0.965,2.575,1.147,3.799,0.44c2.153-1.243,4.589-2.07,7.221-2.347
				c4.878-0.512,9.509,0.936,13.114,3.705c1.127,0.865,2.691,0.876,3.841,0.041l50.616-36.763c1.521-1.105,1.785-3.275,0.569-4.71
				c-17.917-21.143-45.632-33.353-75.273-30.242c-19.267,2.021-36.393,10.21-49.63,22.393c-1.385,1.273-1.391,3.46-0.016,4.744
				L546.208,240.975z"/>
			<path fill="#CADDFF" d="M561.307,276.795c-0.211-0.639-0.813-1.085-1.486-1.06c-9.59,0.361-17.949-6.77-18.966-16.455
				c-0.357-3.404,0.239-6.688,1.573-9.588c0.271-0.59,0.107-1.292-0.368-1.736l-46.917-43.82c-1.395-1.302-3.611-1.123-4.773,0.39
				c-13.072,17.009-19.899,38.866-17.484,61.888c5,47.641,47.673,82.209,95.314,77.209c3.714-0.39,7.348-1.012,10.889-1.846
				c1.847-0.435,2.922-2.364,2.326-4.165L561.307,276.795z"/>
			<path fill="#99B9FF" d="M668.842,241.827c-1.843-16.184-7.158-31.126-15.111-44.178c-0.996-1.635-3.18-2.069-4.719-0.931
				l-82.775,61.25c-1.125,0.833-1.59,2.292-1.154,3.623l30.187,92.07c0.579,1.767,2.521,2.684,4.258,2.024
				C644.867,338.478,674.584,292.221,668.842,241.827z"/>
		</g>
		<g>
			<g>
				<g>
					<path fill="#5479F7" d="M843.844,683.92c0,0,12.297,16.316,11.418,27.047l0.25,4.152l25.669-23.357l-3.585-1.454
						c-5.682-3.884-11.682-6.193-14.982-12.232L843.844,683.92z"/>
					<g>
						<path fill="#FFFFFF" d="M850.853,705.614l0.397,5.058c0.787,10.016-0.873,20.074-4.838,29.307l-3.045,7.094
							c-0.291,0.676-0.227,1.45,0.168,2.07l0.201,0.314c2.236,3.503,12.096,6.523,24.566-1.932
							c7.715-5.23,23.363-19.754,34.061-45.127c0.676-1.603,0.236-3.458-1.097-4.576c-4.859-4.076-16.849-13.379-26.202-14.422
							c-1.041-0.116-1.962,0.666-1.971,1.713l-0.091,10.069c-0.04,4.519-3.747,8.144-8.265,8.083l-11.541-0.154
							C851.832,703.093,850.746,704.252,850.853,705.614z"/>
						<path d="M852.784,754.484c-1.494,0-2.736-0.163-3.695-0.36c-3.039-0.627-5.451-2.034-6.617-3.859l-0.2-0.313
							c-0.664-1.042-0.77-2.339-0.282-3.472l3.046-7.093c3.853-8.974,5.484-18.862,4.72-28.598l-0.397-5.058
							c-0.084-1.069,0.289-2.131,1.022-2.913c0.733-0.781,1.766-1.195,2.838-1.207l11.541,0.154c0.029,0.001,0.06,0.001,0.09,0.001
							c1.75,0,3.399-0.673,4.653-1.898c1.274-1.247,1.985-2.916,2.001-4.699l0.091-10.069c0.008-0.91,0.403-1.78,1.085-2.385
							c0.693-0.615,1.63-0.909,2.553-0.806c9.784,1.092,22.141,10.688,26.999,14.764c1.846,1.549,2.454,4.084,1.515,6.31
							c-12.544,29.753-31.023,43.359-34.601,45.785C862.377,753.356,856.714,754.484,852.784,754.484z M852.348,705.497l0.397,5.058
							c0.803,10.218-0.91,20.597-4.954,30.016l-3.046,7.094c-0.094,0.22-0.073,0.471,0.055,0.672l0.2,0.313
							c0.558,0.874,2.084,1.998,4.695,2.537c3.019,0.626,9.34,0.813,17.766-4.9c3.454-2.343,21.305-15.495,33.521-44.47
							c0.424-1.005,0.151-2.147-0.679-2.844c-4.649-3.9-16.433-13.08-25.403-14.08c-0.119-0.02-0.195,0.036-0.23,0.067
							c-0.074,0.066-0.075,0.142-0.075,0.167l-0.091,10.07c-0.023,2.586-1.054,5.007-2.903,6.816
							c-1.818,1.778-4.212,2.754-6.75,2.754c-0.044,0-0.087-0.001-0.131-0.001l-11.542-0.154c-0.313-0.004-0.516,0.16-0.608,0.259
							S852.323,705.182,852.348,705.497L852.348,705.497z"/>
					</g>
					<path d="M844.658,745.996c-0.58,0-1.132-0.337-1.377-0.902c-0.33-0.761,0.019-1.644,0.778-1.974l1.593-0.691
						c8.006-3.475,14.323-10.166,17.333-18.358l1.063-2.896c0.474-1.291,1.62-2.143,2.992-2.223c1.401-0.085,2.61,0.631,3.232,1.855
						l1.375,2.706c0.144,0.282,0.39,0.359,0.523,0.38c0.136,0.021,0.395,0.021,0.616-0.204c7.441-7.566,13.125-16.435,16.894-26.354
						l2.182-5.743c0.295-0.775,1.167-1.159,1.935-0.87c0.774,0.294,1.164,1.16,0.87,1.935l-2.182,5.743
						c-3.917,10.313-9.825,19.528-17.56,27.395c-0.836,0.849-2.038,1.249-3.215,1.064c-1.176-0.183-2.199-0.925-2.738-1.986
						l-1.375-2.706c-0.099-0.193-0.255-0.215-0.381-0.22c-0.12,0.008-0.278,0.059-0.353,0.262l-1.063,2.897
						c-3.292,8.959-10.2,16.276-18.954,20.076l-1.593,0.691C845.06,745.956,844.857,745.996,844.658,745.996z"/>
				</g>
				<g>
					<path fill="#5479F7" d="M750.313,729.737c0,0,1.409,16.063-5.247,23.682l-2.076,3.274l31.227-1.657l-1.508-3.418
						c-2.684-6.081-4.746-15.866-4.223-22.257L750.313,729.737z"/>
					<g>
						<path fill="#FFFFFF" d="M746.026,743.035l-3.136,3.229c-6.21,6.393-13.881,11.179-22.354,13.947l-6.508,2.127
							c-0.621,0.202-1.1,0.699-1.281,1.325l-0.092,0.318c-1.022,3.541,2.742,11.878,15.679,15.23
							c7.782,2.017,25.813,3.882,48.104-3.134c2.64-0.83,4.365-3.358,4.24-6.123c-0.288-6.396-1.416-17.789-5.717-23.87
							c-0.529-0.747-1.556-0.849-2.248-0.25c-1.528,1.32-4.265,3.684-6.765,5.843c-3.033,2.621-7.617,2.274-10.224-0.77
							l-6.658-7.777C748.279,742.211,746.871,742.167,746.026,743.035z"/>
						<path d="M745.306,782.543c-9.278,0-15.47-1.393-17.347-1.879c-9.751-2.527-13.848-7.538-15.422-10.3
							c-1.386-2.432-1.867-4.909-1.322-6.799l0.094-0.322c0.318-1.102,1.161-1.975,2.254-2.331l6.51-2.127
							c8.207-2.682,15.725-7.373,21.742-13.566l3.137-3.229c0.696-0.717,1.701-1.092,2.664-1.077
							c0.998,0.031,1.942,0.484,2.591,1.242l6.659,7.776c0.999,1.168,2.394,1.875,3.926,1.99c1.531,0.109,3.015-0.374,4.178-1.378
							l6.765-5.844c0.657-0.569,1.519-0.835,2.369-0.731c0.834,0.102,1.594,0.557,2.084,1.25c4.534,6.411,5.699,18.208,5.99,24.669
							c0.157,3.459-2.018,6.593-5.288,7.621C764.463,781.42,753.639,782.543,745.306,782.543z M747.103,744.081l-3.136,3.228
							c-6.355,6.541-14.296,11.496-22.963,14.328l-6.51,2.127c-0.147,0.048-0.261,0.166-0.304,0.315l-0.094,0.322
							c-0.244,0.845-0.099,2.468,1.047,4.478c1.34,2.351,4.885,6.631,13.567,8.881c3.425,0.889,21.796,4.906,47.277-3.112
							c1.975-0.621,3.287-2.522,3.192-4.625c-0.276-6.133-1.351-17.285-5.443-23.071l-1.23,1.045l-5.577,4.817
							c-1.771,1.529-4.04,2.27-6.363,2.1c-2.334-0.176-4.458-1.252-5.98-3.03l-6.658-7.776c-0.139-0.162-0.314-0.191-0.406-0.194
							C747.436,743.903,747.253,743.926,747.103,744.081L747.103,744.081z"/>
					</g>
					<path d="M750.655,771.171c-1.321,0-2.646-0.037-3.974-0.11c-1.109-0.062-2.128-0.657-2.726-1.594
						c-0.597-0.937-0.708-2.111-0.297-3.143l0.997-2.502c0.015-0.037,0.046-0.113-0.04-0.2c-0.087-0.087-0.162-0.057-0.2-0.042
						l-2.552,0.988c-7.936,3.075-16.906,2.759-24.609-0.866l-1.394-0.656c-0.75-0.354-1.071-1.247-0.719-1.996
						s1.247-1.068,1.996-0.719l1.394,0.656c6.964,3.276,15.073,3.562,22.248,0.784l2.553-0.989c1.203-0.464,2.51-0.184,3.415,0.73
						c0.906,0.914,1.172,2.226,0.695,3.421l-0.997,2.502c-0.076,0.19-0.008,0.344,0.039,0.418c0.048,0.074,0.157,0.2,0.362,0.211
						c9.374,0.526,18.589-0.884,27.382-4.177l5.104-1.912c0.778-0.289,1.641,0.103,1.931,0.878c0.291,0.775-0.103,1.641-0.878,1.931
						l-5.104,1.912C767.344,769.671,759.076,771.171,750.655,771.171z"/>
				</g>
				<g>
					<path d="M806.402,466.917c0,0,12.603,41.699-8.885,71.294c-28.954,39.877-12.411,131.883-26.9,193.748
						c-0.277,1.185-1.351,2.01-2.566,1.996l-17.553-0.189c-1.168-0.014-2.184-0.799-2.486-1.928
						c-4.131-15.426-31.848-119.842-30.957-140.652c0.203-4.749,0.807-10.286,1.643-16.105
						c4.049-28.201,12.568-55.577,24.938-81.242l19.302-40.048L806.402,466.917z"/>
					<path d="M819.996,462.202c0,0,15.852,29.463,8.838,60.459c-7.016,30.996,3.533,56.707,10.971,68.811
						c7.349,11.959,20.813,42.123,25.545,86.959c0.115,1.089-0.277,2.177-1.07,2.934c-2.475,2.364-8.603,7.167-17.856,7.566
						c-1.075,0.046-2.118-0.397-2.829-1.205c-7.297-8.29-49.287-56.955-64.208-95.664c-16.366-42.457-19.434-113.012-19.434-113.012
						S800.693,483.355,819.996,462.202z"/>
					<path fill="#CADDFF" d="M781.416,605.104c-0.037,0-0.073-0.001-0.11-0.004c-0.826-0.06-1.447-0.778-1.388-1.604
						c1.819-25.149,5.064-50.572,16.386-66.165c7.94-10.937,12.066-24.806,12.264-41.221c0.01-0.822,0.68-1.482,1.5-1.482
						c0.006,0,0.012,0,0.018,0c0.829,0.01,1.492,0.689,1.482,1.518c-0.205,17.049-4.523,31.499-12.836,42.947
						c-10.88,14.985-14.034,39.913-15.821,64.62C782.854,604.501,782.194,605.104,781.416,605.104z"/>
				</g>
			</g>
			<g>
				<g>
					<path fill="#FFFFFF" d="M645.783,345.999l-2.534-8.429c-0.76-3.753,6.874-11.858,1.882-14.12
						c-3.632-1.646-3.256,4.076-8.412,5.012c-2.69,0.487-5.654-4.727-6.117-7.166c-1.607-8.454-5.256-11.566-8.486-10.423
						c-3.23,1.144-7.464,14.275-1.697,23.52c5.766,9.245,17.373,17.012,17.373,17.012L645.783,345.999z"/>
					<path d="M637.791,352.904c-0.291,0-0.582-0.084-0.834-0.253c-0.485-0.325-11.943-8.055-17.813-17.465
						c-4.108-6.587-3.474-14.91-1.682-20.037c0.629-1.799,2.005-4.93,4.15-5.69c1.532-0.542,3.111-0.385,4.572,0.454
						c2.775,1.594,4.812,5.434,5.89,11.103c0.438,2.312,3.121,6.2,4.375,5.971c1.942-0.353,2.834-1.546,3.779-2.809
						c1.021-1.366,2.563-3.433,5.521-2.094c1.142,0.518,1.919,1.313,2.31,2.363c0.863,2.322-0.463,5.188-1.745,7.958
						c-0.786,1.698-1.761,3.804-1.605,4.813l2.509,8.349c0.188,0.628-0.053,1.307-0.596,1.674l-7.991,5.405
						C638.378,352.818,638.084,352.904,637.791,352.904z M623.413,312.145c-0.265,0-0.53,0.048-0.799,0.143
						c-0.361,0.128-1.405,1.239-2.319,3.853c-1.573,4.5-2.151,11.772,1.395,17.459c4.653,7.461,13.405,14.049,16.115,15.985
						l6.224-4.21l-2.216-7.372c-0.014-0.044-0.024-0.089-0.033-0.134c-0.396-1.95,0.678-4.269,1.813-6.723
						c0.929-2.006,2.084-4.502,1.656-5.652c-0.071-0.192-0.22-0.442-0.736-0.677c-0.67-0.302-0.756-0.344-1.881,1.158
						c-1.073,1.436-2.544,3.4-5.646,3.963c-3.925,0.721-7.337-5.616-7.857-8.362c-1.255-6.599-3.521-8.535-4.437-9.061
						C624.262,312.268,623.838,312.145,623.413,312.145z"/>
				</g>
				<g>
					<path fill="#FFFFFF" d="M670.729,278.307c0,0-1.389-6.272,0.799-10.379c2.022-3.798,6.496-12.722,4.197-19.8
						c-2.982-9.181-11.629-15.66-13.508-14.132c-1.689,1.372,5.884,16.087,1.895,23.052c-0.845,1.474-2.74,2.012-4.26,1.256
						c-1.838-0.914-4.447-2.89-6.851-7.15c-0.61-1.082-2.181-1.139-2.821-0.075c-0.882,1.463-1.658,3.91-1.166,7.81
						c0.628,4.974,3.281,9.612,5.545,11.821c2.467,2.408,3.45,9.964,3.45,9.964L670.729,278.307z"/>
					<path d="M656.727,282.438l-0.205-1.57c-0.357-2.725-1.489-7.6-3.011-9.085c-2.406-2.349-5.306-7.326-5.985-12.707
						c-0.45-3.565,0.011-6.518,1.37-8.771c0.563-0.938,1.554-1.494,2.654-1.494c0.015,0,0.03,0.001,0.046,0.001
						c1.123,0.016,2.162,0.631,2.712,1.605c2.238,3.969,4.613,5.75,6.212,6.545c0.818,0.406,1.849,0.113,2.29-0.659
						c2.196-3.834,0.181-11.114-1.154-15.932c-1.181-4.268-1.774-6.409-0.386-7.538c0.508-0.41,1.431-0.807,2.943-0.36
						c3.617,1.067,10.307,7.093,12.938,15.192c2.602,8.008-2.593,17.763-4.3,20.969c-1.581,2.968-1.012,7.756-0.659,9.35
						l0.335,1.515L656.727,282.438z M651.554,251.81c-0.778,1.187-1.505,3.302-1.052,6.891c0.563,4.458,2.994,8.876,5.104,10.936
						c2.098,2.048,3.191,6.77,3.643,9.28l9.758-1.815c-0.298-2.271-0.547-6.605,1.196-9.878c4.183-7.854,5.561-14.122,4.095-18.631
						c-2.386-7.346-8.496-12.482-10.79-13.229c0.15,0.996,0.633,2.74,1.039,4.207c1.555,5.614,3.685,13.304,0.866,18.224
						c-1.238,2.159-3.975,2.976-6.229,1.854c-1.975-0.981-4.877-3.125-7.489-7.756C651.658,251.825,651.598,251.811,651.554,251.81z
						"/>
				</g>
				<path fill="#5479F7" d="M826.99,420.851c-0.413-30.683-7.123-50.965-18.072-64.153c-8.353-10.061-20.337-16.441-33.273-18.354
					c-12.447-1.841-33.662-4.136-41.188,0.179c-5.292,3.034-2.094,4.507-3.597,8.935c-4.235,10.695-3.988,20.39-2.31,27.996
					c1.646,7.457,5.375,14.271,10.428,19.997c7.189,8.146,4.828,28.573-6.683,71.855c0,0,50.032,25.816,100.3,9.928
					C832.596,477.232,827.422,452.871,826.99,420.851z"/>
				<path fill="#5479F7" d="M645.117,341.017l-11.543,6.957c-1.586,0.956-2.38,2.825-1.945,4.625
					c3.367,13.949,33.037,59.173,129.336,58.542c17.69-0.115,24.777-23.372,17.973-39.702l0,0
					c-3.742-8.978-13.235-14.069-22.809-12.35c-22.55,4.049-76.891,17.33-105.512-17.108
					C649.262,340.35,646.935,339.922,645.117,341.017z"/>
				<path fill="#5479F7" d="M751.064,336.064c-29.656,1.737-46.762-13.498-59.65-28.912c-7.068-8.454-11.398-14.773-15.873-27.56
					c-0.713-2.038-2.786-3.275-4.92-2.943l-13.213,2.062c-2.312,0.36-3.953,2.431-3.78,4.764
					c1.333,17.964,11.366,88.662,86.747,98.486C740.375,381.961,764.801,350.205,751.064,336.064z"/>
				<path d="M724.522,369.62c-9.206,0-19.26-1.071-29.995-3.201c-0.813-0.161-1.341-0.951-1.18-1.764
					c0.161-0.812,0.949-1.341,1.764-1.18c13.47,2.673,25.815,3.648,36.708,2.901c0.82-0.062,1.542,0.566,1.599,1.394
					c0.058,0.826-0.566,1.542-1.394,1.599C729.593,369.536,727.09,369.62,724.522,369.62z"/>
				<path d="M759.564,412.827c-5.153,0-10.635-0.294-16.533-0.88c-0.824-0.081-1.426-0.815-1.344-1.641
					c0.081-0.823,0.818-1.439,1.641-1.344c16.521,1.638,29.672,0.96,41.388-2.135c0.797-0.213,1.622,0.267,1.833,1.067
					c0.212,0.801-0.267,1.621-1.067,1.833C777.624,411.804,769.167,412.827,759.564,412.827z"/>
			</g>
			<g>
				<path d="M744.955,289.087c-1.034-3.391-1.529-6.928-1.242-10.462c0.605-7.413,3.963-18.087,17.1-24.559
					c21.84-10.758,40.787,15.219,49.117,19.027c10.588,4.84,31.227-1.124,38.373,1.082c6.596,2.037,32.36,5.834,33.293,38.737
					c0.104,3.63-0.227,7.256-0.727,10.853c-0.635,4.557-4.168,16.922,9.738,29.903c18.584,17.349,32.457,62.751-1.979,81.805
					c-8.238,4.56-15.234,2.149-23.023-1.566c-1.412-0.674-2.893-1.465-4.42-2.394c-4.416-2.687-8.707-9.687-14.488-9.47
					c-16.941,0.634-67.63,14.739-55.137-44.154c3.512-16.556-5.354-35.825-11.592-39.597c-5.064-3.062-35.063-0.256-37.094-2.143
					c-12.347-11.465-6.285-25.904-0.51-33.95C746.631,296.26,745.863,292.062,744.955,289.087z"/>
				<g>
					<path fill="#FFFFFF" d="M785.506,297.479c-0.783,0.187-1.544-0.351-1.617-1.151c-0.348-3.802-2.891-10.272-7.114-12.712
						c-5.413-3.126-12.655-3.394-15.483,0.577c-2.467,3.465-1.945,6.175-7.735,9.865c-0.555,0.354-0.44,1.229-0.054,1.762
						l1.986,3.059c0.434,0.597,0.477,2.171,0.329,2.895c-0.455,2.236-1.443,6.847-1.03,7.766c1.205,2.675,9.132,4.789,9.132,4.789
						l-0.803,20.593c-0.247,2.778-1.479,3.271-1.479,3.271l-4.688,4.257c0,0-0.175,5.043,18.09,7.949
						c13.717,2.182,12.857-0.236,12.857-0.236s-11.642-12.21-6.689-38.786c0.109-0.584,0.526-1.066,1.087-1.265
						c2.149-0.762,8.039-3.146,8.413-7.287C791.104,298.428,788.186,296.84,785.506,297.479z"/>
					<path d="M784.011,352.804c-2.069,0-5.004-0.256-9.207-0.925c-18.631-2.964-19.392-8.419-19.354-9.482
						c0.014-0.404,0.19-0.786,0.49-1.059l4.688-4.257c0.097-0.088,0.203-0.162,0.318-0.222c0.086-0.077,0.541-0.554,0.676-2.072
						l0.752-19.339c-2.712-0.818-7.769-2.66-8.954-5.293c-0.453-1.008-0.268-2.847,0.829-8.199l0.099-0.481
						c0.096-0.473,0.037-1.478-0.104-1.763l-1.999-3.076c-0.46-0.629-0.672-1.514-0.522-2.302c0.123-0.65,0.488-1.198,1.026-1.541
						c3.632-2.314,4.487-4.109,5.478-6.188c0.492-1.033,1.001-2.102,1.843-3.283c3.454-4.853,11.751-4.301,17.455-1.006
						c4.715,2.723,7.39,9.539,7.836,13.658c1.831-0.378,3.603,0.048,4.901,1.172c1.474,1.276,2.163,3.341,1.939,5.813
						c-0.425,4.699-6.075,7.383-9.405,8.565c-0.059,0.021-0.104,0.069-0.114,0.125c-4.733,25.403,6.192,37.362,6.304,37.48
						c0.143,0.151,0.255,0.334,0.325,0.529c0.168,0.475,0.157,1.21-0.377,1.852C788.387,352.169,787.271,352.804,784.011,352.804z
						 M758.712,342.873c0.822,1.169,4.068,4.056,16.563,6.043c6.093,0.969,9.005,0.979,10.36,0.83
						c-2.945-4.027-10.036-16.461-5.902-38.645c0.204-1.104,0.994-2.026,2.06-2.404c1.667-0.592,7.129-2.773,7.421-6.008
						c0.137-1.506-0.18-2.639-0.915-3.275c-0.609-0.527-1.5-0.7-2.446-0.477c-0.798,0.189-1.638,0.027-2.301-0.45
						c-0.66-0.474-1.082-1.211-1.156-2.023c-0.318-3.483-2.709-9.436-6.37-11.55c-5.148-2.973-11.338-2.907-13.512,0.148
						c-0.689,0.968-1.121,1.874-1.578,2.834c-1.053,2.21-2.141,4.492-6.147,7.149l1.959,3.016c0.783,1.075,0.704,3.212,0.541,4.012
						l-0.099,0.484c-0.279,1.36-1.115,5.44-0.995,6.439c0.675,1.211,4.688,2.969,8.112,3.882c0.678,0.181,1.14,0.807,1.112,1.508
						l-0.803,20.592c-0.258,2.914-1.462,4.039-2.093,4.435L758.712,342.873z M758.442,342.352L758.442,342.352
						C758.442,342.352,758.442,342.352,758.442,342.352z M761.079,336.799c-0.006,0.003-0.013,0.005-0.019,0.008
						C761.067,336.804,761.073,336.801,761.079,336.799z"/>
				</g>
			</g>
		</g>
		<g>
			<g>
				<g>
					<g>
						<polygon fill="#FFFFFF" points="144.819,827.445 130.232,875.433 108.909,869.289 124.416,818.854 						"/>
						<path d="M131.237,877.283l-24.211-6.976l16.443-53.48l23.178,9.761L131.237,877.283z M110.791,868.271l18.436,5.312
							l13.764-45.279l-17.628-7.423L110.791,868.271z"/>
					</g>
					<g>
						<path fill="#FFFFFF" d="M132.205,868.197l-21.268-6.744c-1.509-0.478-3.154-0.005-4.17,1.209
							c-3.34,3.987-10.58,13.487-13.287,23.819c-0.74,2.822,0.879,5.729,3.661,6.612l30.219,9.581
							c6.638,2.104,13.486,3.483,20.422,4.112c0,0,22.333,2.356,22.594-4.756c0.375-10.212-14.668-12.25-16.688-14.316
							c-7.73-7.912-15.821-15.301-18.794-17.979C134.116,869.034,133.203,868.514,132.205,868.197z"/>
						<path d="M155.581,908.68c-3.915,0-7.201-0.321-7.956-0.4c-7.009-0.636-13.987-2.041-20.718-4.175l-30.219-9.581
							c-3.555-1.128-5.601-4.827-4.659-8.422c2.816-10.747,10.441-20.646,13.588-24.402c1.408-1.684,3.673-2.343,5.773-1.675
							l21.267,6.743c1.211,0.384,2.301,1.008,3.24,1.854c3.108,2.801,11.166,10.167,18.863,18.045
							c0.33,0.316,1.928,0.923,3.211,1.409c5.318,2.019,14.22,5.396,13.903,14.012c-0.049,1.337-0.654,2.546-1.749,3.495
							C167.224,908.101,160.837,908.68,155.581,908.68z M109.749,862.77c-0.696,0-1.368,0.303-1.831,0.855
							c-3.018,3.603-10.324,13.077-12.986,23.236c-0.537,2.049,0.633,4.158,2.664,4.803l30.218,9.581
							c6.524,2.068,13.289,3.43,20.104,4.048c4.473,0.472,16.78,1.028,20.244-1.978c0.617-0.535,0.704-1.021,0.716-1.338
							c0.238-6.465-7.109-9.252-11.969-11.097c-2.127-0.808-3.533-1.341-4.293-2.119c-7.637-7.816-15.639-15.13-18.725-17.912
							c-0.619-0.558-1.338-0.969-2.138-1.223l-21.268-6.743C110.241,862.807,109.994,862.77,109.749,862.77z"/>
					</g>
					<path d="M131.263,889.672c-0.439,0-0.875-0.192-1.171-0.562c-0.518-0.646-0.414-1.591,0.232-2.108l12.519-10.036
						c0.647-0.52,1.591-0.413,2.109,0.231c0.518,0.646,0.414,1.591-0.232,2.108L132.2,889.342
						C131.923,889.564,131.592,889.672,131.263,889.672z"/>
					<path d="M137.937,897.124c-0.439,0-0.875-0.192-1.171-0.562c-0.518-0.646-0.414-1.591,0.232-2.108l12.519-10.036
						c0.647-0.52,1.591-0.414,2.109,0.231c0.518,0.646,0.414,1.591-0.232,2.108l-12.519,10.036
						C138.598,897.017,138.266,897.124,137.937,897.124z"/>
				</g>
				<g>
					<g>
						<polygon fill="#FFFFFF" points="265.563,839.474 264.545,873.722 240.434,873.712 242.125,837.952 						"/>
						<path d="M266.001,875.223l-27.141-0.012l1.837-38.854l26.407,1.714L266.001,875.223z M242.006,872.213l21.083,0.008
							l0.931-31.344l-20.469-1.329L242.006,872.213z"/>
					</g>
					<g>
						<path fill="#FFFFFF" d="M263.6,873.206l-22.386-0.009c-1.588-0.001-3.019,0.959-3.623,2.441
							c-1.987,4.871-6.035,16.259-5.496,27.063c0.147,2.952,2.577,5.265,5.505,5.266l65.688,0.025
							c3.021,0.001,5.317-2.783,4.713-5.771c-0.723-3.579-3.219-8.285-10.42-12.52c-11.659-6.854-26.312-13.708-30.933-15.829
							C265.69,873.434,264.653,873.206,263.6,873.206z"/>
						<path d="M303.29,909.493c0,0-0.001,0-0.002,0l-65.688-0.025c-3.739-0.001-6.815-2.94-7.002-6.69
							c-0.561-11.232,3.733-23.117,5.605-27.705c0.836-2.051,2.802-3.375,5.009-3.375c0.001,0,0.002,0,0.003,0l22.386,0.009
							c1.276,0,2.512,0.271,3.674,0.805c4.303,1.976,19.263,8.96,31.067,15.9c7.878,4.631,10.401,9.905,11.13,13.515
							c0.377,1.863-0.099,3.776-1.305,5.25C306.962,908.648,305.185,909.493,303.29,909.493z M241.212,874.697
							c-0.983,0-1.858,0.592-2.232,1.508c-1.796,4.403-5.917,15.791-5.387,26.422c0.107,2.153,1.868,3.84,4.007,3.841l65.688,0.025
							c0,0,0.001,0,0.001,0c0.991,0,1.922-0.443,2.555-1.217c0.634-0.774,0.884-1.779,0.686-2.757
							c-0.872-4.316-4.23-8.301-9.71-11.522c-11.683-6.868-26.527-13.799-30.799-15.76c-0.767-0.353-1.582-0.531-2.422-0.531
							l-22.387-0.009C241.213,874.697,241.212,874.697,241.212,874.697z"/>
					</g>
					<path d="M268.747,894.283c-0.284,0-0.571-0.08-0.826-0.249c-0.691-0.456-0.881-1.387-0.424-2.078l8.936-13.519
						c0.456-0.691,1.386-0.884,2.079-0.424c0.691,0.456,0.881,1.387,0.424,2.078L270,893.61
						C269.711,894.047,269.233,894.283,268.747,894.283z"/>
					<path d="M277.388,899.438c-0.284,0-0.571-0.08-0.826-0.249c-0.691-0.456-0.881-1.387-0.424-2.078l8.936-13.519
						c0.457-0.691,1.386-0.883,2.079-0.424c0.691,0.456,0.881,1.387,0.424,2.078l-8.936,13.519
						C278.352,899.201,277.875,899.438,277.388,899.438z"/>
				</g>
				<g>
					<path fill="#5479F7" d="M164.499,548.107c0,0-11.007,27.483-13.145,55.655c-2.137,28.171-31.385,198.222-40.148,241.069
						c0,0,19.631,10.984,30.819,9.182c0,0,63.19-125.857,73.486-219.614c10.296-93.757,7.291-86.27,7.291-86.27L164.499,548.107z"/>
					<path fill="#5479F7" d="M183.892,558.665c0,0-3.545,50.791,14.071,86.695s38.774,175.478,37.301,210.974
						c0,0,22.313,5.9,32.893,1.762c0,0,32.047-201.188-8.766-300.114L183.892,558.665z"/>
					<path fill="#CADDFF" d="M208.701,684.865c-0.709,0-1.339-0.505-1.474-1.227c-0.027-0.146-2.779-14.712-9.387-26.396
						c-10.05-17.765-13.712-39.144-13.863-40.045c-0.137-0.817,0.415-1.591,1.231-1.728c0.818-0.13,1.59,0.413,1.728,1.231
						c0.036,0.216,3.732,21.771,13.515,39.064c6.861,12.131,9.612,26.711,9.726,27.326c0.15,0.814-0.388,1.597-1.202,1.747
						C208.883,684.857,208.792,684.865,208.701,684.865z"/>
				</g>
			</g>
			<g>
				<g>
					<path fill="#5479F7" d="M319.942,363.711l22.555,92.442c1.9,7.519,7.204,12.577,11.847,11.299l7.644-2.104
						c4.643-1.278,6.866-8.41,4.965-15.928l-22.556-92.442L319.942,363.711z"/>
					<path d="M263.924,346.372l12.67,24.751c1.951,3.812,8.396,4.41,14.395,1.335l-19.736-38.555
						C265.254,336.979,261.973,342.561,263.924,346.372z"/>
					<g>
						<polygon fill="#FFFFFF" points="396.784,209.839 386.06,215.335 269.104,332.069 291.112,375.063 454.129,348.307 
							464.852,342.811 						"/>
						<path d="M291.111,376.563c-0.556,0-1.075-0.31-1.335-0.816l-22.008-42.993c-0.296-0.58-0.185-1.285,0.276-1.745L385,214.273
							c0.11-0.11,0.237-0.202,0.375-0.273l10.724-5.496c0.354-0.181,0.766-0.214,1.145-0.093c0.378,0.122,0.693,0.39,0.875,0.744
							l68.068,132.972c0.377,0.737,0.086,1.641-0.651,2.019l-10.724,5.496c-0.139,0.071-0.287,0.12-0.441,0.146l-163.016,26.756
							C291.273,376.556,291.192,376.563,291.111,376.563z M270.937,332.358l21.012,41.047l161.705-26.541l9.181-4.705
							l-66.702-130.301l-9.18,4.704L270.937,332.358z"/>
					</g>
					<path d="M457.207,261.327c8.023,15.672,6.768,32.354-2.803,37.259c-9.572,4.905-23.834-3.823-31.857-19.496
						c-8.023-15.672-6.768-32.354,2.804-37.259C434.922,236.926,449.185,245.654,457.207,261.327z"/>
					<path fill="#5479F7" d="M470.121,347.744l-8.953,4.588c-3.865,1.981-8.579,0.109-10.061-3.978
						c-16.588-45.757-38.825-89.312-66.876-130.599c-2.439-3.59-1.199-8.503,2.661-10.481l8.946-4.585
						c3.204-1.643,7.132-0.666,9.194,2.288c29.364,42.067,52.25,86.726,68.615,133.991
						C474.822,342.363,473.316,346.107,470.121,347.744z"/>
					<path d="M295.567,331.899c-0.402,0-0.803-0.16-1.098-0.478c-0.565-0.606-0.531-1.556,0.076-2.12l24.237-22.563
						c0.606-0.566,1.555-0.531,2.12,0.075c0.565,0.606,0.531,1.556-0.076,2.12l-24.237,22.563
						C296.3,331.767,295.933,331.899,295.567,331.899z"/>
					<path d="M328.902,300.866c-0.402,0-0.803-0.16-1.098-0.478c-0.565-0.606-0.531-1.556,0.076-2.12l44.111-41.065
						c0.606-0.566,1.555-0.531,2.12,0.075s0.531,1.556-0.076,2.12l-44.111,41.065C329.635,300.733,329.268,300.866,328.902,300.866z
						"/>
				</g>
				<g>
					<path fill="#5479F7" d="M447.242,234.76c-0.361,0-0.723-0.13-1.01-0.392c-0.612-0.559-0.656-1.508-0.097-2.119l11.294-12.38
						c0.558-0.611,1.507-0.654,2.118-0.098c0.613,0.559,0.656,1.508,0.098,2.119l-11.294,12.38
						C448.055,234.595,447.649,234.76,447.242,234.76z"/>
					<path fill="#5479F7" d="M463.84,253.104c-0.561,0-1.098-0.315-1.355-0.854c-0.355-0.748-0.039-1.644,0.709-2l40.661-19.371
						c0.752-0.354,1.643-0.038,2,0.709c0.356,0.748,0.038,1.644-0.709,2l-40.661,19.371
						C464.275,253.057,464.057,253.104,463.84,253.104z"/>
					<path fill="#5479F7" d="M497.305,279.78c-0.016,0-0.032,0-0.048-0.001l-27.802-0.869c-0.828-0.025-1.479-0.718-1.452-1.546
						c0.025-0.829,0.7-1.5,1.546-1.452l27.802,0.869c0.828,0.025,1.479,0.718,1.452,1.546
						C498.777,279.14,498.111,279.78,497.305,279.78z"/>
				</g>
			</g>
			<g>
				<g>
					<path fill="#FFFFFF" d="M294.096,440.467c0,0,33.384,15.49,33.635,14.639c0.982-3.341,3.35-12.807,2.866-25.04l-1.23-15.618
						c-0.397-2.832-1.98-5.308-4.231-7.07c-3.687-2.887-5.809-7.257-5.864-11.85l-0.146-7.023c-0.006-1.1-0.675-4.579,2.398-4.324
						c2.325,0.193,2.573,2.054,4.741,10.628c1.068,4.224,9.829-3.1,13.876-9.079c2.631-3.888,9.321-10.069,14.448-7.411
						c4.467,2.316,4.527,12.868,0.865,20.174c-0.137,0.272-4.909,7.46-6.572,10.474c-1.86,3.374-2.503,7.28-1.818,11.071
						c1.599,8.849,3.594,20.941,3.594,20.941c3.972,27.882-2.473,46-2.473,46c-0.14,1.175-0.431,2.337-0.965,3.393
						c-1.268,2.51-3.271,3.934-5.924,3.573c-0.088-0.012-10.73-0.412-21.107-2.85c-11.554-2.715-22.967-7.498-23.069-7.521
						C297.12,483.572,293.093,446.428,294.096,440.467z"/>
					<path d="M342.112,495.5c-0.313,0-0.631-0.021-0.955-0.062c-2.807-0.139-12.164-0.735-21.312-2.885
						c-9.62-2.26-19.296-5.984-23.01-7.48l-0.224-0.09c-0.535-0.192-0.921-0.674-0.983-1.249
						c-0.166-1.525-4.037-37.421-3.011-43.517c0.078-0.461,0.366-0.86,0.78-1.078c0.415-0.219,0.905-0.232,1.331-0.033
						c10.55,4.895,27.266,12.478,31.948,14.197c1.099-4.153,2.841-12.594,2.422-23.179l-1.227-15.56
						c-0.318-2.245-1.621-4.411-3.66-6.008c-4.031-3.156-6.377-7.898-6.439-13.013l-0.145-7.01c-0.001-0.14-0.012-0.288-0.023-0.457
						c-0.077-1.192-0.205-3.187,1.098-4.465c0.502-0.493,1.42-1.055,2.946-0.929c3.192,0.266,3.738,2.444,5.546,9.662l0.526,2.093
						c0.031,0.124,0.062,0.168,0.063,0.168c1.295,0.379,7.475-4.338,11.117-9.72c3.176-4.692,10.432-10.987,16.38-7.902
						c5.554,2.881,5.371,14.488,1.515,22.178c-0.068,0.136-0.157,0.275-1.055,1.659c-1.522,2.347-4.357,6.714-5.544,8.867
						c-1.688,3.063-2.276,6.643-1.656,10.08c1.583,8.758,3.578,20.843,3.598,20.964c3.832,26.896-1.811,44.607-2.484,46.586
						c-0.183,1.397-0.55,2.65-1.095,3.728C347.093,493.948,344.829,495.5,342.112,495.5z M298.514,482.515
						c3.993,1.59,13.045,5.011,22.018,7.119c8.943,2.101,18.117,2.678,20.715,2.805c0.152,0.008,0.235,0.017,0.246,0.018
						c1.855,0.258,3.334-0.676,4.388-2.763c0.407-0.806,0.681-1.779,0.814-2.894c0.013-0.11,0.039-0.22,0.076-0.324
						c0.063-0.178,6.268-18.146,2.401-45.286c-0.015-0.089-2.007-12.151-3.585-20.887c-0.743-4.114-0.04-8.398,1.981-12.063
						c1.24-2.247,4.112-6.673,5.655-9.051c0.495-0.764,0.841-1.294,0.923-1.433c3.324-6.636,3.21-16.314-0.248-18.107
						c-4.096-2.124-10.172,3.459-12.515,6.92c-2.916,4.309-10.155,11.665-14.185,10.94c-1.195-0.21-2.066-1.061-2.388-2.335
						l-0.528-2.1c-1.626-6.493-1.95-7.323-2.884-7.4c-0.35-0.034-0.541,0.023-0.596,0.079c-0.322,0.316-0.237,1.635-0.205,2.131
						c0.015,0.239,0.027,0.447,0.028,0.611l0.145,7c0.051,4.212,1.979,8.107,5.289,10.7c2.653,2.077,4.355,4.934,4.792,8.042
						l1.24,15.709c0.494,12.442-1.879,22.033-2.922,25.581c-0.123,0.419-0.445,0.787-0.843,0.967
						c-0.756,0.34-1.616,0.726-32.889-13.753C295.305,450.48,297.467,472.719,298.514,482.515z"/>
				</g>
				<g>
					<path fill="#FFFFFF" d="M97.837,591.098c-6.994,6.281-1.487,22.655-1.487,22.655s-2.448,4.114-8.508,9.061
						c-0.598,0.488-1.079,0.966-1.458,1.431c-2.578,3.156,1.404,7.47,4.825,5.255c5.834-3.778,17.415-11.696,19.696-16.422
						c1.837-3.804,1.943-11.619,1.73-17.303c-0.251-6.698,0.052-13.394,0.873-20.046c2.172-17.604,6.1-50.49,23.175-67.307
						c21.583-21.257-20.17-37.104-20.17-37.104s-17.764,24.356-22.763,44.057C88.75,535.076,97.837,591.098,97.837,591.098z"/>
					<path d="M89.223,631.603c-1.409,0-2.795-0.601-3.83-1.756c-1.7-1.899-1.771-4.593-0.171-6.552
						c0.454-0.556,1.016-1.108,1.671-1.644c4.505-3.676,6.953-6.892,7.812-8.128c-0.982-3.254-4.492-16.541,1.529-22.953
						c-1.119-7.081-8.695-56.817-3.938-75.563c5.013-19.755,22.273-43.569,23.005-44.573c0.397-0.545,1.11-0.762,1.744-0.519
						c0.982,0.373,24.083,9.289,27.024,23.258c1.166,5.539-0.965,11.029-6.333,16.316c-16.558,16.308-20.542,48.613-22.683,65.969
						l-0.056,0.454c-0.817,6.617-1.107,13.28-0.863,19.806c0.326,8.696-0.306,14.757-1.878,18.012
						c-2.28,4.722-12.26,11.866-20.231,17.028C91.147,631.325,90.18,631.603,89.223,631.603z M117.047,473.153
						c-3.282,4.669-17.523,25.569-21.843,42.592c-4.866,19.174,4.023,74.557,4.114,75.113c0.082,0.504-0.098,1.016-0.479,1.356
						c-5.135,4.611-2.511,16.766-1.067,21.06c0.139,0.415,0.091,0.869-0.133,1.245c-0.105,0.178-2.654,4.4-8.849,9.456
						c-0.5,0.407-0.917,0.817-1.244,1.217c-0.807,0.987-0.486,2.018,0.082,2.652c0.571,0.639,1.638,1.122,2.765,0.396
						c10.5-6.8,17.662-12.712,19.161-15.815c1.318-2.73,1.88-8.624,1.582-16.595c-0.25-6.685,0.047-13.51,0.883-20.285l0.057-0.454
						c2.185-17.718,6.253-50.698,23.555-67.738c4.594-4.524,6.445-9.087,5.503-13.562
						C138.857,482.979,121.55,475.049,117.047,473.153z"/>
				</g>
				<path d="M307.58,443.521c-0.062-1.264-0.654-2.441-1.635-3.24c-3.544-2.883-12.833-10.146-23.897-16.479
					c-12.209-6.989-26.931-11.986-40.998-11.812l-47.299-1.139c-22.84,1.558-39.494,9.875-54.093,24.346
					c-9.614,9.529-23.617,28.779-28.013,34.924c-0.824,1.15-0.821,2.699,0.006,3.849l27.24,37.89
					c1.245,1.731,3.775,1.853,5.173,0.242c3.263-3.761,8.844-10.139,13.316-14.975c0.772-0.834,2.161-0.2,2.037,0.93l-8.868,80.808
					c-0.735,5.612,124.961,14.646,124.596,8.793c-1.174-18.869-7.784-34.547-4.998-93.908c0.101-2.138,2.066-3.699,4.167-3.292
					c6.044,1.173,18.157,3.479,30.404,5.561c2.81,0.478,5.34-1.772,5.201-4.619L307.58,443.521z"/>
			</g>
			<g>
				<g>
					<path fill="#FFFFFF" d="M205.738,377.38l-3.863,38.196c-0.545,4.676,3.007,8.826,7.711,9.009l11.395,0.442
						c4.608,0.18,8.432-3.529,8.393-8.141l-0.278-36.474L205.738,377.38z"/>
					<path d="M221.307,426.533c-0.128,0-0.255-0.002-0.384-0.007l-11.395-0.442c-2.658-0.104-5.175-1.321-6.905-3.343
						s-2.546-4.696-2.238-7.339l3.86-38.174c0.041-0.402,0.243-0.772,0.56-1.024c0.317-0.251,0.727-0.365,1.125-0.312l23.358,3.032
						c0.744,0.097,1.301,0.727,1.307,1.476l0.277,36.475c0.023,2.643-1.01,5.113-2.908,6.954
						C226.16,425.581,223.808,426.533,221.307,426.533z M207.075,379.066l-3.708,36.661c-0.217,1.864,0.329,3.654,1.535,5.063
						c1.206,1.409,2.89,2.225,4.742,2.296l11.395,0.442c1.828,0.084,3.534-0.587,4.837-1.853c1.303-1.265,2.013-2.961,1.997-4.776
						l-0.268-35.168L207.075,379.066z"/>
				</g>
				<path d="M224.117,330.359c-9.156,1.239-10.406,11.573-21.348,12.784c-5.014,0.555-7.532-1.308-11.975,0.824
					c-2.942,1.412-7.224,4.813-7.663,9.315c-0.559,5.735,5.728,6.975,12.146,18.016c4.507,7.753,4.78,12.943,8.367,13.506
					c3.627,0.568,5.251-4.439,9.26-4.116c5.188,0.418,5.862,9.079,11.336,11.664c3.45,1.629,10.678,1.292,20.884-6.346
					c1.654-1.237,2.191-3.481,1.271-5.331c-1.179-2.37-2.683-5.356-4.361-8.089c-7.993-13.024-13.639-15.224-12.523-19.217
					c1.708-6.117,12.935-4.979,13.801-9.899C244.212,338.359,233.52,329.087,224.117,330.359z"/>
				<g>
					<path fill="#FFFFFF" d="M211.526,355.262c0,0,8.042,16.904,11.13,21.128c3.089,4.224,16.896-4.349,16.896-4.349l0.339-3.045
						l1.651-1.075c0.512-0.333,0.846-0.88,0.908-1.488s-0.154-1.211-0.588-1.641c-3.33-3.303-10.394-10.797-13.826-18.091
						C228.037,346.702,218.703,344.328,211.526,355.262z"/>
					<path d="M225.604,379.059c-1.74,0-3.22-0.501-4.158-1.782c-3.135-4.289-10.943-20.675-11.274-21.37
						c-0.225-0.474-0.187-1.029,0.101-1.468c7.674-11.693,17.71-9.298,18.134-9.19c0.435,0.111,0.797,0.41,0.987,0.815
						c3.385,7.191,10.586,14.749,13.525,17.664c0.76,0.755,1.132,1.796,1.024,2.858c-0.108,1.064-0.685,2.011-1.583,2.594
						l-1.057,0.688l-0.261,2.34c-0.051,0.457-0.309,0.865-0.699,1.108C237.736,374.935,230.598,379.059,225.604,379.059z
						 M213.251,355.392c1.609,3.348,8.016,16.557,10.616,20.114c1.292,1.763,8.41-0.84,14.275-4.362l0.258-2.313
						c0.05-0.446,0.296-0.847,0.672-1.091l1.651-1.075c0.133-0.087,0.218-0.227,0.234-0.384s-0.04-0.312-0.153-0.424
						c-3.669-3.64-10.23-10.696-13.784-17.812C224.995,347.801,218.644,347.728,213.251,355.392z"/>
				</g>
				<path fill="#FFFFFF" d="M214.434,369.004c0,0-6.348-7.774-9.275-4.138C202.232,368.502,209.436,376.886,214.434,369.004z"/>
			</g>
		</g>
		<g>
			<path fill="#99B9FF" d="M659.568,872.132c8.119-23.587,11.035-45.938,11.4-65.007c0.053-2.725-9.564-1.616-9.609-4.2
				c-0.044-2.639,9.482-8.966,9.354-11.445c-0.648-12.478-2.257-22.87-3.775-30.366c-0.918-4.53-6.992-5.414-9.16-1.331
				c-31.461,59.291-89.291,112.833-89.291,112.833l-18.031,31.053C587.801,897.894,624.588,887.277,659.568,872.132z"/>
			<path fill="#99B9FF" d="M316.055,873.111c21.079,9.129,42.79,16.646,64.766,22.373c4.993-34.451,14.532-66.16,24.866-92.891
				c0.903-2.335-11.65-4.609-10.738-6.867c1.071-2.649,15.608-5.266,16.685-7.804c11.406-26.892,22.911-47.408,29.709-58.685
				c1.825-3.028-1.367-6.594-4.576-5.111c-42.548,19.649-70.504,48.081-88.745,75.203c-2.027,3.014,5.773,17.423,3.979,20.39
				c-2.014,3.333-13.592-4.784-15.33-1.548C323.604,842.512,318.074,863.603,316.055,873.111z"/>
			<g>
				<path fill="#5479F7" d="M644.343,678.83c2.142-4.198-2.251-8.729-6.497-6.686c-21.792,10.484-67.258,34.441-108.352,69.448
					c-2.537,2.161,3.549,19.477,0.984,21.752c-2.945,2.614-18.109-6.493-21.08-3.728c-29.166,27.16-70.669,86.561-101.787,141.921
					c4.145,0.794,8.292,1.539,12.442,2.2c46.544,7.412,94.534,6.55,141.452-1.93C576.188,850.653,589.574,786.193,644.343,678.83z"
					/>
				<path fill="#CADDFF" d="M486.732,890.147c-0.182,0-0.365-0.032-0.543-0.102c-0.772-0.3-1.155-1.169-0.855-1.941
					c25.574-65.85,63.909-117.667,91.565-149.541c0.542-0.627,1.489-0.692,2.116-0.149c0.625,0.543,0.692,1.49,0.148,2.116
					c-27.5,31.694-65.616,83.213-91.033,148.66C487.9,889.784,487.333,890.147,486.732,890.147z"/>
				<path fill="#CADDFF" d="M596.496,720.871c-0.376,0-0.752-0.141-1.043-0.422c-0.596-0.576-0.611-1.525-0.035-2.121
					c10.8-11.163,17.8-17.25,17.869-17.311c0.627-0.543,1.573-0.474,2.116,0.151c0.542,0.626,0.475,1.573-0.151,2.116
					c-0.068,0.06-6.979,6.07-17.678,17.129C597.28,720.718,596.888,720.871,596.496,720.871z"/>
			</g>
		</g>
		<g>
			<path fill="#5479F7" d="M470.947,154.642c-0.146,0-0.294-0.009-0.442-0.027l-82.751-10.426c-1.918-0.242-3.277-1.992-3.035-3.91
				c0.242-1.918,1.997-3.275,3.91-3.035l82.751,10.426c1.918,0.242,3.276,1.992,3.034,3.91
				C474.191,153.349,472.685,154.642,470.947,154.642z"/>
			<path fill="#5479F7" d="M451.399,174.406c-0.15,0-0.302-0.01-0.456-0.029l-65.158-8.471c-1.917-0.249-3.269-2.005-3.02-3.922
				c0.249-1.917,1.998-3.263,3.922-3.02l65.158,8.471c1.918,0.249,3.27,2.005,3.02,3.922
				C454.637,173.121,453.131,174.406,451.399,174.406z"/>
			<path fill="#5479F7" d="M584.975,385.302c-0.146,0-0.294-0.009-0.442-0.027l-82.751-10.426c-1.918-0.242-3.276-1.992-3.035-3.91
				c0.241-1.919,2.003-3.267,3.91-3.035l82.751,10.426c1.918,0.242,3.276,1.992,3.035,3.91
				C588.22,384.009,586.712,385.302,584.975,385.302z"/>
			<path fill="#5479F7" d="M565.427,405.066c-0.151,0-0.303-0.01-0.456-0.029l-65.158-8.471c-1.917-0.249-3.269-2.005-3.02-3.922
				c0.249-1.918,2.011-3.266,3.922-3.02l65.158,8.471c1.917,0.249,3.269,2.005,3.02,3.922
				C568.663,403.781,567.158,405.066,565.427,405.066z"/>
			<path fill="#5479F7" d="M774.585,192.434c-0.146,0-0.294-0.009-0.442-0.027l-82.751-10.426c-1.918-0.242-3.276-1.992-3.035-3.91
				c0.241-1.919,2.003-3.273,3.91-3.035l82.751,10.426c1.918,0.242,3.276,1.992,3.035,3.91
				C777.83,191.141,776.322,192.434,774.585,192.434z"/>
			<path fill="#5479F7" d="M755.037,212.198c-0.151,0-0.303-0.01-0.456-0.029l-65.158-8.471c-1.917-0.249-3.269-2.005-3.02-3.922
				c0.249-1.918,2.011-3.271,3.922-3.02l65.158,8.471c1.917,0.249,3.269,2.005,3.02,3.922
				C758.273,210.913,756.769,212.198,755.037,212.198z"/>
		</g>
		<g>
			<path d="M690.956,692.762c-1.207,0-2.433-0.233-3.614-0.726c-2.323-0.969-4.131-2.784-5.088-5.112
				c-0.958-2.328-0.952-4.89,0.017-7.213s2.784-4.131,5.112-5.089c2.33-0.958,4.891-0.951,7.213,0.017
				c4.797,2.001,7.072,7.53,5.072,12.326l0,0C698.16,690.579,694.648,692.762,690.956,692.762z M690.969,676.909
				c-0.828,0-1.655,0.162-2.444,0.487c-1.587,0.652-2.824,1.885-3.484,3.469c-0.661,1.584-0.665,3.33-0.012,4.917
				c0.652,1.587,1.884,2.824,3.468,3.484c3.27,1.362,7.039-0.187,8.402-3.456s-0.188-7.039-3.457-8.402
				C692.645,677.075,691.807,676.909,690.969,676.909z M698.283,686.388h0.01H698.283z"/>
			<path d="M398.697,701.359c-0.885,0-1.77-0.176-2.612-0.526c-3.455-1.44-5.094-5.424-3.653-8.879
				c1.44-3.455,5.425-5.093,8.878-3.653c1.674,0.698,2.976,2.006,3.666,3.683c0.689,1.677,0.686,3.521-0.012,5.195l0,0
				c-0.698,1.674-2.005,2.976-3.682,3.666C400.447,701.188,399.572,701.359,398.697,701.359z M398.702,690.778
				c-1.484,0-2.896,0.877-3.502,2.33c-0.804,1.929,0.11,4.151,2.039,4.955c0.934,0.392,1.964,0.393,2.899,0.007
				c0.936-0.385,1.666-1.111,2.056-2.046l0,0c0.389-0.934,0.392-1.964,0.007-2.899c-0.385-0.936-1.112-1.665-2.046-2.055
				C399.68,690.872,399.187,690.778,398.702,690.778z"/>
			<path d="M202.056,290.777c-5.857,0-10.622-4.765-10.622-10.622s4.765-10.623,10.622-10.623s10.622,4.766,10.622,10.623
				S207.913,290.777,202.056,290.777z M202.056,272.532c-4.203,0-7.622,3.42-7.622,7.623s3.419,7.622,7.622,7.622
				s7.622-3.419,7.622-7.622S206.259,272.532,202.056,272.532z"/>
			<path d="M179.033,133.094c-5.857,0-10.622-4.765-10.622-10.622s4.765-10.622,10.622-10.622c5.857,0,10.623,4.765,10.623,10.622
				c0,0.828-0.671,1.5-1.5,1.5s-1.5-0.672-1.5-1.5c0-4.203-3.419-7.622-7.623-7.622c-4.203,0-7.622,3.419-7.622,7.622
				s3.419,7.622,7.622,7.622c0.829,0,1.5,0.672,1.5,1.5S179.862,133.094,179.033,133.094z"/>
			<g>
				<path d="M364.441,717.67c-0.194,0-0.391-0.037-0.581-0.117l-6.014-2.527c-0.764-0.321-1.123-1.2-0.802-1.964
					c0.321-0.765,1.199-1.126,1.964-0.802l6.014,2.527c0.764,0.321,1.123,1.2,0.802,1.964
					C365.583,717.325,365.026,717.67,364.441,717.67z"/>
				<path d="M343.392,708.823c-0.194,0-0.391-0.037-0.582-0.117l-6.014-2.528c-0.764-0.321-1.122-1.2-0.801-1.964
					c0.321-0.765,1.2-1.124,1.964-0.802l6.014,2.528c0.764,0.321,1.122,1.2,0.801,1.964
					C344.534,708.479,343.978,708.823,343.392,708.823z"/>
				<path d="M354.026,704.447c-0.191,0-0.385-0.036-0.573-0.114c-0.766-0.316-1.129-1.193-0.813-1.959l2.494-6.028
					c0.317-0.767,1.194-1.135,1.959-0.813c0.766,0.316,1.129,1.193,0.813,1.959l-2.494,6.028
					C355.173,704.099,354.615,704.447,354.026,704.447z"/>
				<path d="M345.299,725.547c-0.191,0-0.385-0.036-0.573-0.114c-0.766-0.316-1.129-1.193-0.813-1.959l2.494-6.028
					c0.317-0.767,1.194-1.131,1.959-0.813c0.766,0.316,1.129,1.193,0.813,1.959l-2.494,6.028
					C346.447,725.198,345.888,725.547,345.299,725.547z"/>
			</g>
		</g>
	</g>
</g>
</svg>
